<?xml version="1.0" standalone="no"?>
<!DOCTYPE svg PUBLIC "-//W3C//DTD SVG 20010904//EN"
 "http://www.w3.org/TR/2001/REC-SVG-20010904/DTD/svg10.dtd">
<svg version="1.0" xmlns="http://www.w3.org/2000/svg"
 width="512.000000pt" height="512.000000pt" viewBox="0 0 512.000000 512.000000"
 preserveAspectRatio="xMidYMid meet">

<g transform="translate(0.000000,512.000000) scale(0.100000,-0.100000)"
fill="#DF0303" stroke="none">
<path d="M2085 5099 c-506 -48 -972 -213 -1338 -474 -265 -189 -458 -410 -587
-670 -108 -217 -150 -392 -150 -619 0 -411 161 -776 482 -1096 79 -79 248
-217 303 -247 15 -9 15 -15 -5 -74 -71 -211 -216 -405 -410 -548 -47 -35 -93
-76 -104 -93 -27 -43 -18 -111 22 -150 27 -27 39 -31 123 -40 118 -12 354 -4
479 17 324 54 636 197 883 406 66 56 87 69 107 65 179 -36 656 -43 870 -13
591 83 1108 320 1462 669 511 504 633 1160 326 1748 -166 320 -438 586 -802
789 -283 157 -573 253 -926 307 -188 28 -556 40 -735 23z m453 -464 c78 -33
115 -91 131 -209 6 -42 11 -79 11 -80 0 -2 19 -9 43 -16 23 -7 63 -23 89 -36
l47 -24 55 46 c69 56 112 74 173 74 71 0 121 -31 225 -138 144 -149 154 -220
50 -356 -24 -33 -45 -64 -46 -70 -1 -6 14 -50 33 -97 l34 -87 61 -6 c101 -11
135 -24 180 -69 58 -58 68 -102 64 -263 -2 -107 -7 -136 -24 -169 -29 -55 -91
-101 -148 -109 -25 -3 -65 -9 -89 -12 l-43 -6 -38 -89 -38 -90 51 -66 c110
-142 93 -231 -71 -389 -94 -90 -136 -114 -202 -114 -61 0 -108 20 -171 74
l-52 45 -89 -36 c-49 -20 -90 -36 -91 -37 -2 -2 -8 -38 -14 -81 -16 -119 -52
-177 -131 -210 -58 -23 -299 -21 -354 4 -79 36 -118 101 -130 215 -6 61 -10
69 -33 78 -14 6 -55 24 -90 39 -69 32 -66 32 -134 -24 -81 -67 -164 -84 -242
-48 -22 10 -84 62 -138 117 -80 81 -100 107 -112 148 -24 79 -7 137 66 230 22
27 39 51 39 55 0 3 -16 44 -35 91 l-34 85 -48 8 c-155 25 -186 40 -229 112
-21 36 -27 62 -31 138 -9 143 2 218 40 274 40 58 85 82 187 96 l81 12 34 85
c19 47 35 89 35 93 0 4 -18 31 -41 59 -73 93 -88 145 -64 223 12 41 33 69 116
153 109 112 142 132 216 132 56 0 109 -23 177 -77 l50 -39 75 32 c42 17 83 34
92 37 12 4 18 24 22 75 11 115 44 174 119 211 38 18 60 21 186 21 106 0 152
-4 180 -15z"/>
<path d="M2207 4519 c-31 -24 -43 -65 -53 -171 -4 -43 -12 -82 -18 -87 -6 -5
-36 -16 -67 -25 -31 -9 -92 -34 -135 -55 -43 -22 -83 -36 -89 -32 -5 4 -45 36
-88 70 -67 52 -84 61 -119 61 -38 0 -47 -7 -130 -87 -50 -49 -94 -98 -99 -110
-15 -40 1 -78 67 -159 35 -44 63 -84 64 -91 0 -7 -14 -40 -32 -75 -17 -34 -43
-96 -58 -137 l-26 -76 -113 -17 c-97 -14 -117 -20 -140 -42 -25 -26 -26 -29
-26 -161 0 -132 0 -135 27 -161 23 -23 41 -29 141 -42 l114 -16 23 -70 c12
-39 38 -101 56 -138 19 -37 34 -72 34 -79 0 -6 -27 -44 -60 -84 -105 -128
-103 -150 29 -278 120 -118 133 -117 295 11 l54 43 63 -35 c35 -19 101 -46
145 -61 l82 -26 6 -82 c16 -185 28 -197 202 -197 181 0 189 6 210 169 8 58 17
108 21 112 5 4 33 14 63 23 30 8 93 34 139 56 l83 40 42 -33 c168 -137 183
-139 300 -28 127 121 133 155 45 268 -34 43 -66 83 -71 90 -6 7 7 44 36 105
25 51 50 114 57 141 6 26 15 49 19 52 4 2 49 9 101 15 108 13 151 30 168 66
14 32 14 245 0 278 -17 37 -64 56 -173 69 l-98 12 -27 80 c-15 44 -42 108 -60
143 -17 35 -28 68 -24 75 4 7 33 45 65 85 95 120 92 142 -32 265 -81 80 -91
87 -128 87 -42 0 -74 -18 -169 -96 l-54 -43 -77 38 c-42 21 -107 48 -144 60
-74 25 -72 20 -83 141 -15 151 -27 160 -203 160 -115 0 -132 -2 -155 -21z
m275 -841 c101 -35 189 -122 228 -225 31 -83 25 -206 -14 -286 -138 -283 -535
-281 -670 3 -28 58 -31 75 -31 155 0 80 3 97 31 155 51 107 149 187 258 210
49 11 150 4 198 -12z"/>
<path d="M2266 3570 c-56 -22 -97 -57 -134 -115 -37 -59 -43 -162 -12 -233 44
-101 158 -171 261 -159 145 17 242 123 241 263 -1 188 -182 312 -356 244z"/>
<path d="M4548 2457 c-269 -404 -759 -741 -1312 -902 -299 -87 -525 -118 -861
-119 -152 -1 -296 4 -367 13 l-117 13 -63 -53 c-35 -30 -64 -54 -66 -55 -7 -3
55 -158 90 -222 205 -375 635 -656 1163 -758 129 -25 160 -28 385 -28 147 0
271 4 309 12 l64 11 78 -62 c231 -185 487 -281 785 -294 230 -10 294 10 294
93 0 40 -8 49 -140 157 -105 85 -222 261 -244 364 -7 30 -4 34 72 91 262 200
437 474 482 755 25 150 0 378 -56 513 -53 130 -125 247 -216 351 -52 60 -206
203 -219 203 -3 0 -31 -38 -61 -83z"/>
</g>
</svg>
