<?xml version="1.0" standalone="no"?>
<!DOCTYPE svg PUBLIC "-//W3C//DTD SVG 20010904//EN"
 "http://www.w3.org/TR/2001/REC-SVG-20010904/DTD/svg10.dtd">
<svg version="1.0" xmlns="http://www.w3.org/2000/svg"
 width="512.000000pt" height="512.000000pt" viewBox="0 0 512.000000 512.000000"
 preserveAspectRatio="xMidYMid meet">

<g transform="translate(0.000000,512.000000) scale(0.100000,-0.100000)"
fill="#DF0303" stroke="none">
<path d="M80 4800 l0 -240 2480 0 2480 0 0 240 0 240 -2480 0 -2480 0 0 -240z"/>
<path d="M320 2800 l0 -1600 -46 0 c-65 0 -113 -30 -114 -72 0 -30 21 -65 47
-77 35 -16 4672 -16 4707 0 35 16 52 61 37 98 -15 35 -48 51 -106 51 l-45 0 0
1600 0 1600 -2240 0 -2240 0 0 -1600z m2615 1335 c23 -22 25 -32 25 -112 l0
-88 118 -57 c64 -31 150 -82 190 -112 l72 -55 74 44 c40 25 83 45 94 45 37 0
70 -42 198 -255 130 -216 204 -356 204 -386 0 -27 -39 -65 -105 -102 l-60 -33
5 -60 c7 -88 6 -261 -3 -326 l-7 -58 51 -27 c154 -83 154 -84 -79 -483 -126
-216 -166 -270 -202 -270 -13 0 -56 20 -96 45 l-74 44 -72 -55 c-40 -31 -126
-81 -190 -112 l-118 -57 0 -88 c0 -80 -2 -90 -25 -112 l-24 -25 -351 0 -351 0
-24 25 c-23 22 -25 32 -25 112 l0 88 -118 57 c-64 31 -150 81 -190 112 l-73
55 -62 -38 c-130 -79 -137 -76 -253 122 -203 348 -254 441 -254 463 0 32 27
60 100 102 l65 38 -5 49 c-7 74 -6 293 2 347 l7 47 -74 42 c-78 44 -103 78
-90 119 14 44 335 586 354 599 34 22 64 16 139 -28 l71 -41 83 60 c71 51 224
135 281 154 14 5 17 19 17 96 0 83 2 93 25 115 l24 25 351 0 351 0 24 -25z"/>
<path d="M2320 3921 c0 -60 -4 -84 -17 -100 -10 -11 -61 -37 -113 -56 -117
-44 -203 -94 -297 -174 -45 -38 -82 -61 -97 -61 -13 0 -54 16 -89 34 -49 26
-68 32 -75 23 -19 -25 -222 -384 -222 -393 0 -5 24 -24 53 -41 89 -53 92 -60
76 -150 -18 -101 -18 -294 0 -407 l15 -89 -26 -21 c-14 -12 -48 -34 -75 -51
l-51 -30 114 -195 c62 -107 115 -199 117 -205 2 -5 37 8 79 29 55 28 82 36 98
31 13 -4 53 -33 90 -64 90 -75 159 -115 286 -167 58 -23 112 -51 120 -61 8
-12 13 -46 14 -95 l0 -78 240 0 240 0 0 70 c0 99 10 114 94 146 116 44 216 99
310 174 48 39 99 73 112 76 16 4 45 -6 93 -32 39 -21 72 -36 74 -33 2 2 48 81
102 174 53 94 105 184 116 201 l18 30 -65 38 c-82 47 -90 64 -76 158 27 168
26 197 -4 431 -6 41 -4 51 17 74 13 14 48 39 77 55 50 29 52 32 39 52 -8 11
-60 102 -117 201 -57 99 -105 182 -107 185 -2 2 -23 -6 -46 -19 -23 -14 -54
-31 -68 -39 -37 -22 -66 -10 -165 68 -103 81 -176 122 -294 165 -101 36 -110
49 -110 153 l0 72 -240 0 -240 0 0 -79z m461 -269 c251 -66 454 -232 568 -465
66 -137 85 -220 86 -377 0 -145 -9 -197 -56 -324 -97 -261 -316 -459 -594
-538 -113 -32 -322 -32 -443 0 -312 82 -550 321 -638 642 -22 81 -26 308 -6
390 89 366 359 624 720 690 76 14 278 4 363 -18z"/>
<path d="M2443 3509 c-28 -5 -88 -22 -132 -38 -418 -153 -596 -650 -370 -1033
137 -232 400 -373 662 -354 224 15 432 135 553 318 186 279 157 641 -70 885
-164 177 -408 261 -643 222z m172 -174 c21 -20 25 -34 25 -80 l0 -55 95 0 c88
0 98 -2 120 -25 32 -31 32 -74 0 -109 l-24 -26 -180 0 c-196 0 -223 -6 -241
-51 -14 -33 -6 -62 23 -89 18 -17 35 -20 133 -20 161 0 220 -25 278 -118 60
-97 40 -219 -49 -301 -40 -36 -95 -61 -137 -61 -15 0 -18 -9 -18 -54 0 -65
-30 -106 -80 -106 -50 0 -80 41 -80 106 l0 54 -95 0 c-91 0 -97 1 -120 26 -32
34 -32 74 0 108 l24 26 180 0 c196 0 223 6 241 51 14 33 6 62 -23 89 -18 17
-35 20 -132 20 -129 0 -186 15 -235 63 -45 43 -80 121 -80 177 0 116 114 240
223 240 14 0 17 9 17 54 0 43 5 58 25 80 32 34 77 35 110 1z"/>
<path d="M2480 711 l0 -169 -30 -12 c-67 -28 -130 -136 -130 -224 0 -48 43
-128 89 -168 89 -76 213 -76 301 0 72 61 103 155 81 239 -15 55 -67 123 -114
148 l-37 20 0 168 0 167 -80 0 -80 0 0 -169z m134 -336 c51 -48 16 -135 -56
-135 -39 0 -78 40 -78 80 0 38 42 80 80 80 15 0 39 -11 54 -25z"/>
</g>
</svg>
