<?xml version="1.0" standalone="no"?>
<!DOCTYPE svg PUBLIC "-//W3C//DTD SVG 20010904//EN"
 "http://www.w3.org/TR/2001/REC-SVG-20010904/DTD/svg10.dtd">
<svg version="1.0" xmlns="http://www.w3.org/2000/svg"
 width="512.000000pt" height="512.000000pt" viewBox="0 0 512.000000 512.000000"
 preserveAspectRatio="xMidYMid meet">

<g transform="translate(0.000000,512.000000) scale(0.100000,-0.100000)"
fill="#000000" stroke="none">
<path d="M519 4942 c-167 -44 -305 -186 -343 -352 -24 -103 -24 -1557 0 -1660
38 -166 176 -308 343 -352 59 -15 132 -17 654 -17 l587 -1 0 -172 c0 -147 3
-179 19 -214 35 -76 116 -110 194 -80 32 12 97 71 267 241 l225 225 1030 0
c1115 0 1095 -1 1204 54 67 34 149 113 191 182 70 117 69 100 69 964 0 864 1
847 -69 964 -42 69 -124 148 -191 182 -112 56 -4 54 -2144 53 -1829 0 -1975
-1 -2036 -17z m1023 -473 c91 -20 158 -58 234 -133 77 -78 115 -147 134 -242
7 -40 10 -202 8 -506 -3 -433 -4 -447 -24 -474 -39 -53 -71 -69 -134 -69 -63
0 -95 16 -134 69 -20 25 -21 43 -24 257 l-3 229 -159 0 -159 0 -3 -229 c-3
-214 -4 -232 -24 -257 -39 -53 -71 -69 -134 -69 -63 0 -95 16 -134 69 -20 27
-21 41 -24 474 -3 480 0 523 46 621 33 71 149 188 217 221 101 47 212 61 317
39z m1241 -3 c40 -18 232 -212 246 -249 7 -18 11 -182 11 -458 0 -343 -3 -436
-14 -462 -7 -18 -63 -80 -122 -139 -84 -81 -117 -108 -144 -113 -19 -3 -157
-5 -307 -3 -256 3 -273 4 -299 24 -15 11 -37 33 -48 48 -21 27 -21 39 -24 619
-2 326 0 606 3 624 7 40 49 91 90 109 45 20 563 20 608 0z m1303 -12 c53 -39
69 -71 69 -134 0 -63 -16 -95 -69 -134 -25 -19 -45 -21 -254 -26 -247 -5 -259
-8 -292 -63 -24 -39 -25 -68 -5 -108 27 -51 69 -69 160 -69 145 -1 244 -39
335 -130 174 -174 174 -446 0 -620 -60 -60 -140 -104 -218 -120 -29 -7 -143
-10 -280 -8 -215 3 -232 4 -258 24 -53 39 -69 71 -69 134 0 63 16 95 69 134
25 19 45 21 263 26 l235 5 29 32 c50 57 51 108 0 165 -28 31 -29 32 -149 39
-112 6 -128 10 -198 43 -278 132 -341 489 -124 706 57 57 135 102 207 119 21
5 147 9 280 8 227 -2 243 -3 269 -23z"/>
<path d="M1370 4138 c-58 -29 -90 -89 -90 -165 l0 -53 160 0 160 0 0 53 c0 76
-32 136 -90 165 -24 12 -56 22 -70 22 -14 0 -46 -10 -70 -22z"/>
<path d="M2400 3760 l0 -400 128 0 128 0 32 33 32 33 0 335 0 335 -33 32 -33
32 -127 0 -127 0 0 -400z"/>
<path d="M1710 1910 c-14 -4 -193 -76 -399 -159 l-375 -151 -321 0 c-313 0
-322 -1 -365 -22 -33 -17 -51 -35 -67 -68 -23 -44 -23 -48 -23 -470 0 -422 0
-426 23 -470 33 -67 85 -90 204 -90 l93 0 0 -93 c0 -119 23 -171 90 -204 56
-29 84 -29 140 0 67 33 90 85 90 204 l0 93 69 0 c65 0 86 -7 452 -155 211 -86
402 -158 424 -161 60 -8 123 28 153 86 21 43 22 53 22 336 l0 291 42 12 c53
16 93 56 109 109 24 81 -25 167 -109 193 l-42 12 0 291 c0 283 -1 293 -22 336
-37 72 -113 104 -188 80z m-910 -870 l0 -240 -160 0 -160 0 0 240 0 240 160 0
160 0 0 -240z"/>
</g>
</svg>
