<?xml version="1.0" encoding="UTF-8"?>
<svg version="1.1" xmlns="http://www.w3.org/2000/svg" width="512" height="512">
<path d="M0 0 C0.88076706 0.00141495 1.76153412 0.0028299 2.66899109 0.00428772 C5.47076878 0.00986688 8.27246537 0.02241554 11.07421875 0.03515625 C12.97851447 0.04017394 14.88281144 0.04473638 16.78710938 0.04882812 C21.44534356 0.05982948 26.10351742 0.07707976 30.76171875 0.09765625 C30.82117676 1.10179565 30.82117676 1.10179565 30.88183594 2.1262207 C31.07488352 5.22218129 31.29317176 8.31589515 31.51171875 11.41015625 C31.57359375 12.46267578 31.63546875 13.51519531 31.69921875 14.59960938 C32.64708454 27.43529193 37.00541578 39.36776909 46.49609375 48.36328125 C58.38404725 57.46371462 71.46861884 59.41726815 86.10717773 59.35644531 C87.17069458 59.35994995 88.23421143 59.36345459 89.32995605 59.36706543 C92.80597686 59.37578626 96.28179003 59.37006745 99.7578125 59.36328125 C102.19816629 59.36463077 104.63851981 59.36657369 107.07887268 59.36907959 C112.1783404 59.37201789 117.27773776 59.36777531 122.37719727 59.35839844 C128.88417134 59.34701088 135.39098025 59.35356736 141.89794827 59.36554337 C146.93310265 59.37280215 151.96821849 59.37045553 157.0033741 59.36528778 C159.40133751 59.36396207 161.79930452 59.3655608 164.19726372 59.37024689 C193.2605414 59.67565176 193.2605414 59.67565176 217.79296875 45.296875 C226.63715831 35.41735373 229.10283092 24.4173343 229.94921875 11.53515625 C230.07200195 9.8790332 230.07200195 9.8790332 230.19726562 8.18945312 C230.39572409 5.4927528 230.58363523 2.79576552 230.76171875 0.09765625 C236.27519846 0.02294266 241.78837697 -0.0312099 247.30224609 -0.06713867 C249.17404318 -0.0821324 251.04580569 -0.10253425 252.91748047 -0.12866211 C269.09719875 -0.34870628 281.55002963 0.73694122 294.05859375 12.203125 C303.8260123 22.57641725 307.08320729 33.62548621 306.98876953 47.54077148 C306.98906158 48.67320786 306.98935364 49.80564423 306.98965454 50.97239685 C306.9882657 54.70042693 306.97272521 58.428255 306.95703125 62.15625 C306.95329954 64.74699291 306.95045332 67.33773723 306.94845581 69.92848206 C306.94161027 76.0410829 306.92586126 82.15360087 306.90575683 88.26617056 C306.88335679 95.22870536 306.8723941 102.19124371 306.86236596 109.15380561 C306.84149376 123.46846108 306.80634349 137.7830561 306.76171875 152.09765625 C305.34766139 151.78660434 303.93380021 151.47466058 302.52001953 151.16235352 C301.33897141 150.90193016 301.33897141 150.90193016 300.13406372 150.63624573 C295.94181305 149.68448613 291.78412303 148.59598319 287.625 147.50976562 C268.31865551 142.57928039 244.62184793 142.99411346 225.53881645 149.13473606 C221.51434832 150.16072001 217.80997944 150.37869757 213.69143677 150.35594177 C212.90776383 150.35961748 212.1240909 150.36329318 211.3166703 150.36708027 C208.70600061 150.37701388 206.09554587 150.37291875 203.48486328 150.36889648 C201.60682958 150.37328621 199.72879782 150.37858926 197.85076904 150.38473511 C193.81352677 150.396217 189.77633685 150.4016932 185.73907852 150.4026165 C179.35105893 150.40456056 172.96314731 150.4226322 166.57516479 150.44337463 C150.70866867 150.49251671 134.84214327 150.52343858 118.97558594 150.54467773 C106.64305575 150.56121104 94.31061833 150.58405215 81.97815025 150.62769848 C75.6323323 150.64944421 69.28669073 150.65753554 62.9408381 150.65530574 C58.98741059 150.65697608 55.03409762 150.67104665 51.08071136 150.68851852 C49.25262919 150.6941032 47.42452313 150.69461696 45.59643936 150.68958092 C32.85542376 150.51340544 32.85542376 150.51340544 20.76171875 154.09765625 C17.31901172 157.54036328 16.49649545 160.36654999 16.26171875 165.09765625 C16.48870779 169.81477228 17.37914835 172.63052159 20.76171875 176.09765625 C27.93853491 179.65960654 34.70865717 179.53882507 42.61328125 179.5300293 C44.00361495 179.5390584 45.39394072 179.54938842 46.78425598 179.56091309 C50.53781611 179.58837468 54.29122475 179.59775274 58.04487228 179.60376716 C61.97536921 179.61317922 65.90575424 179.6393848 69.83618164 179.66377258 C77.26970445 179.70736362 84.70320544 179.73595591 92.13681698 179.75909597 C100.60365334 179.7861874 109.07037672 179.83009641 117.53713226 179.87538469 C134.9452695 179.96812496 152.35343116 180.03985418 169.76171875 180.09765625 C169.3485396 180.5779982 168.93536045 181.05834015 168.50966072 181.55323792 C167.96829916 182.18350388 167.4269376 182.81376984 166.86917114 183.46313477 C166.33224199 184.08785172 165.79531284 184.71256866 165.24211311 185.35621643 C162.56931715 188.50032008 160.10977387 191.7960328 157.63671875 195.09765625 C157.12496094 195.77054688 156.61320313 196.4434375 156.0859375 197.13671875 C155.58449219 197.80445313 155.08304688 198.4721875 154.56640625 199.16015625 C154.12280762 199.74925781 153.67920898 200.33835938 153.22216797 200.9453125 C151.55928701 203.22384593 151.55928701 203.22384593 150.36689758 206.67974854 C148.95757883 209.1239193 148.2807295 209.94711949 145.53899384 210.74234772 C142.54576229 210.98255442 139.6209804 210.99387082 136.6184082 210.93652344 C135.48135941 210.94248032 134.34431061 210.94843719 133.17280579 210.95457458 C129.40613673 210.96670579 125.64149434 210.9301392 121.875 210.89453125 C119.25668381 210.89629845 116.63836783 210.90157555 114.02006531 210.91021729 C107.8222769 210.92599141 101.62508669 210.90876219 95.42737311 210.87754655 C83.69069869 210.819074 71.95411765 210.81721797 60.21733665 210.83341217 C56.36793329 210.83205085 52.51906838 210.80971085 48.66975403 210.78485107 C46.29717082 210.78140518 43.92458666 210.77854635 41.55200195 210.77636719 C40.48725647 210.76393478 39.42251099 210.75150238 38.32550049 210.73869324 C30.8819054 210.75673154 23.67764072 211.18173428 18.19921875 216.66015625 C16.26277391 221.29078523 15.98951107 225.15070081 16.76171875 230.09765625 C18.6477065 234.41971151 19.97953483 235.73177585 24.25305176 237.73078918 C29.28537472 239.5020404 34.11017375 239.53791771 39.40039062 239.5300293 C40.95296066 239.54531677 40.95296066 239.54531677 42.53689575 239.56091309 C45.9348092 239.59094256 49.33244026 239.60029386 52.73046875 239.609375 C55.09559051 239.62622909 57.46070335 239.64438031 59.82580566 239.66377258 C66.03337823 239.71119912 72.24091462 239.74105618 78.4486084 239.76721191 C84.79003032 239.79705438 91.13132773 239.8435721 97.47265625 239.88867188 C109.90227852 239.97462153 122.33192648 240.04200403 134.76171875 240.09765625 C134.55675781 241.34160156 134.35179687 242.58554687 134.140625 243.8671875 C132.72065791 252.59836254 131.38765504 261.26670189 130.76171875 270.09765625 C129.51636856 270.10352249 128.27101837 270.10938873 126.9879303 270.11543274 C115.23240782 270.17272913 103.47706909 270.24552711 91.72173405 270.33337116 C85.67867945 270.37803441 79.63569165 270.41729965 73.5925293 270.4440918 C67.75687927 270.47016482 61.92148682 270.51059603 56.08599663 270.56084251 C53.86338958 270.5774841 51.64073801 270.58901519 49.41807747 270.59527016 C46.29675635 270.60494052 43.17609021 270.63303568 40.05493164 270.6652832 C39.14286453 270.66384811 38.23079742 270.66241302 37.29109192 270.66093445 C30.24003432 270.76347103 23.35428959 271.50508541 18.19921875 276.66015625 C16.26277391 281.29078523 15.98951107 285.15070081 16.76171875 290.09765625 C18.64918736 294.42310515 19.98042526 295.73279194 24.25878906 297.73078918 C29.26212924 299.49195111 34.04839057 299.53794991 39.30859375 299.5300293 C40.33388687 299.54022095 41.35917999 299.5504126 42.4155426 299.56091309 C45.78099099 299.59093938 49.14615425 299.60029336 52.51171875 299.609375 C54.85442035 299.62622933 57.19711295 299.64438058 59.53979492 299.66377258 C65.68818346 299.71119653 71.83653549 299.74105526 77.98504639 299.76721191 C84.26614591 299.79705569 90.54711976 299.84357296 96.828125 299.88867188 C109.13925707 299.97461858 121.45041507 300.04200239 133.76171875 300.09765625 C133.9225293 300.65114746 134.08333984 301.20463867 134.24902344 301.77490234 C134.99814914 304.34234101 135.75489944 306.90747541 136.51171875 309.47265625 C136.764375 310.34277344 137.01703125 311.21289062 137.27734375 312.109375 C139.09992477 318.26058596 141.280794 324.18197239 143.76171875 330.09765625 C143.1824894 330.1000446 142.60326006 330.10243296 142.00647831 330.10489368 C127.88312387 330.16414614 113.75993527 330.23976132 99.63676548 330.33337116 C92.8067689 330.3782505 85.97682355 330.41768302 79.14672852 330.4440918 C72.55249132 330.46960417 65.95846525 330.51056162 59.36436272 330.56084251 C56.85147896 330.57749778 54.33855565 330.58902037 51.82562447 330.59527016 C48.29960405 330.60492545 44.77416706 330.63300346 41.24829102 330.6652832 C40.21466431 330.66384811 39.1810376 330.66241302 38.11608887 330.66093445 C30.76816914 330.75575811 23.5990686 331.2603064 18.19921875 336.66015625 C16.26277391 341.29078523 15.98951107 345.15070081 16.76171875 350.09765625 C18.60630785 354.3248396 19.96173422 355.70259271 24.09283447 357.74269104 C29.93347472 359.79425728 35.84668496 359.44098395 41.96386719 359.33959961 C43.97231272 359.32565529 45.98075845 359.31172904 47.9892087 359.29848111 C50.1353631 359.2819045 52.28135028 359.25829591 54.42742157 359.2332592 C58.91761602 359.18319342 63.40756981 359.16599182 67.89801025 359.15565491 C69.44041071 359.15170499 70.98281107 359.14771738 72.52521133 359.14369297 C73.68338135 359.14068501 73.68338135 359.14068501 74.86494875 359.13761628 C85.30723669 359.10768995 95.74877494 359.04998374 106.19042969 358.92993164 C113.2503582 358.84902481 120.30913628 358.81132332 127.36953759 358.82157236 C131.09785253 358.82517268 134.82314529 358.80708208 138.55083466 358.73539543 C164.22125133 358.26084604 164.22125133 358.26084604 170.90385818 364.303689 C173.10253985 366.73676982 174.92229813 369.38762409 176.76171875 372.09765625 C179.49298286 374.47821826 182.38416932 376.51252288 185.38671875 378.53515625 C186.10529053 379.03176758 186.8238623 379.52837891 187.56420898 380.04003906 C192.72776344 383.55095403 197.99777526 386.66178824 203.76171875 389.09765625 C203.76171875 389.42765625 203.76171875 389.75765625 203.76171875 390.09765625 C202.87326547 390.1000446 201.98481218 390.10243296 201.06943607 390.10489368 C179.4354399 390.16407087 157.80155488 390.23963845 136.16767979 390.33337116 C125.70562816 390.37830609 115.2436104 390.41772611 104.78149414 390.4440918 C95.66101504 390.46709048 86.54064331 390.5005095 77.4202494 390.54635781 C72.59261009 390.57026473 67.76507696 390.58901011 62.93737984 390.59527016 C58.38930882 390.60133243 53.84150939 390.6213736 49.29353905 390.65193176 C47.62834181 390.66069367 45.96310905 390.66443841 44.29788971 390.66266441 C32.23392267 390.63117049 32.23392267 390.63117049 20.76171875 394.09765625 C17.31901172 397.54036328 16.49649545 400.36654999 16.26171875 405.09765625 C16.48870779 409.81477228 17.37914835 412.63052159 20.76171875 416.09765625 C26.49587522 418.69092405 31.1262942 419.53355434 37.36985779 419.47860718 C38.19930422 419.48328715 39.02875066 419.48796712 39.88333184 419.49278891 C42.64300907 419.50468714 45.40218494 419.49530203 48.16186523 419.48583984 C50.14842009 419.48990787 52.13497267 419.49525105 54.121521 419.50177002 C59.50376796 419.51542271 64.88584201 419.51015313 70.26809192 419.50063276 C75.90798573 419.49302454 81.54786499 419.50008511 87.1877594 419.50479126 C96.65913544 419.51024586 106.13044126 419.50306538 115.60180664 419.48876953 C126.54111279 419.47244834 137.48025114 419.47772891 148.41955322 419.49424875 C157.82191508 419.50787762 167.22422653 419.50977627 176.62659508 419.50193274 C182.23772401 419.49726334 187.84877417 419.49661114 193.45989799 419.50654221 C198.73687947 419.51522978 204.01364537 419.50915714 209.29060364 419.49185944 C211.22350774 419.48790397 213.15643009 419.48901248 215.08932686 419.49564743 C217.73532542 419.50389043 220.3806406 419.49350838 223.02659607 419.47860718 C223.78478604 419.48529934 224.54297602 419.49199151 225.32414144 419.49888647 C230.78530559 419.43955705 235.79873915 418.4552149 240.76171875 416.09765625 C243.81306782 412.817456 244.88929417 410.24308187 245.35546875 405.890625 C245.48953125 404.63894531 245.62359375 403.38726562 245.76171875 402.09765625 C247.73978516 402.13246094 247.73978516 402.13246094 249.7578125 402.16796875 C267.67522857 402.39122304 283.59923554 400.58771576 300.83325195 395.63842773 C302.80106656 395.08662252 304.77822331 394.58966128 306.76171875 394.09765625 C306.88957156 401.12260269 306.97650706 408.14724396 307.03637695 415.1730957 C307.06136217 417.55797538 307.09536219 419.94277974 307.13891602 422.32739258 C307.44020836 439.26002234 307.46618695 452.54172383 295.859375 465.94921875 C288.62472931 473.35900484 278.92623167 479.66428102 268.35686475 480.22530675 C267.09198343 480.2271765 267.09198343 480.2271765 265.80154896 480.22908401 C264.82240994 480.23292516 263.84327093 480.2367663 262.83446103 480.24072385 C261.76638092 480.23985737 260.6983008 480.23899088 259.59785461 480.23809814 C258.45724349 480.24106927 257.31663236 480.24404039 256.14145726 480.24710155 C252.31085018 480.2557887 248.48027436 480.25729682 244.6496582 480.25878906 C241.90655839 480.26287981 239.16346186 480.26842135 236.42036438 480.27383423 C228.96155084 480.28740536 221.50274268 480.29344041 214.04391885 480.29784489 C209.38453002 480.30060947 204.72514327 480.30484722 200.06575584 480.30934906 C187.1594331 480.32154031 174.25311201 480.33183979 161.34678364 480.33522415 C160.52104371 480.33544372 159.69530379 480.33566328 158.84454144 480.3358895 C157.60300593 480.33621692 157.60300593 480.33621692 156.33638889 480.33655095 C154.65923647 480.33699441 152.98208405 480.33744098 151.30493164 480.33789062 C150.47301012 480.33811205 149.64108859 480.33833348 148.78395732 480.33856162 C135.30829819 480.3425084 121.83269317 480.3599594 108.35705493 480.38325015 C94.51419429 480.406982 80.67136078 480.41942684 66.82847947 480.42059207 C59.05930679 480.42150782 51.29020463 480.42723483 43.52105141 480.44541168 C36.90455003 480.46083746 30.28814095 480.46591857 23.671625 480.45767358 C20.29817103 480.45377571 16.92505341 480.45629717 13.5515976 480.46873093 C9.88773958 480.48144164 6.22435598 480.47557773 2.5605011 480.46514893 C0.97511133 480.47723353 0.97511133 480.47723353 -0.64230651 480.48956227 C-13.31492018 480.40539333 -23.29915889 476.31597055 -32.7578125 467.83984375 C-40.61337344 459.73676099 -45.35396403 449.68627482 -45.37529564 438.36170387 C-45.37794747 437.66990388 -45.38059929 436.97810389 -45.38333148 436.26534027 C-45.39103628 433.92994191 -45.3915841 431.59459603 -45.3921814 429.25918579 C-45.39619527 427.57469245 -45.40063337 425.89020007 -45.40546095 424.20570886 C-45.41744118 419.56294032 -45.42307829 414.92018218 -45.42764211 410.27740121 C-45.4335929 405.27510663 -45.44520423 400.27282451 -45.45593262 395.27053833 C-45.48047144 383.1811525 -45.49508739 371.09176253 -45.50799268 359.00235945 C-45.511704 355.58778724 -45.5156773 352.17321543 -45.51974535 348.75864363 C-45.54498489 327.55667812 -45.56703909 306.35471198 -45.5794735 285.15273476 C-45.58240323 280.24000674 -45.58536488 275.32727875 -45.58837891 270.41455078 C-45.58912496 269.19350526 -45.58987101 267.97245975 -45.59063967 266.71441285 C-45.60328831 246.94223747 -45.63650356 227.17015211 -45.67818074 207.39801879 C-45.72061677 187.09944769 -45.7441706 166.80092264 -45.74939406 146.5023073 C-45.75280663 135.10506997 -45.76454355 123.70797323 -45.7974968 112.31077957 C-45.82552156 102.60214907 -45.83648602 92.89368797 -45.82530133 83.18502016 C-45.82012063 78.23350186 -45.82296328 73.28233819 -45.84776688 68.33087158 C-45.87031497 63.79164136 -45.86947646 59.25301935 -45.850563 54.71377806 C-45.84777074 53.07770348 -45.85331823 51.44158717 -45.86837594 49.8055795 C-45.99627351 34.9957314 -42.86272191 22.97929939 -32.23828125 12.09765625 C-22.70816075 3.39207334 -12.66793907 -0.07699847 0 0 Z M18.26171875 95.66015625 C15.2926959 100.48481838 15.14105577 104.48582849 15.76171875 110.09765625 C18.20739135 115.07958191 21.14550219 117.85713483 26.41002369 119.66309738 C29.8920989 120.30653398 33.36053115 120.2420579 36.88883972 120.23809814 C38.12788283 120.24255483 38.12788283 120.24255483 39.3919571 120.24710155 C42.16390286 120.25578319 44.9358054 120.25729635 47.70776367 120.25878906 C49.69372652 120.26341766 51.67968849 120.26844237 53.66564941 120.27383423 C59.06460466 120.28695726 64.46354746 120.29340314 69.86251616 120.29784489 C73.23625528 120.3007761 76.609991 120.30488102 79.98372841 120.30934906 C90.54124918 120.32302446 101.09876218 120.3326906 111.65629119 120.33655095 C123.8396292 120.34103031 136.02285494 120.35857242 148.20615882 120.38755155 C157.62541279 120.40917757 167.0446352 120.41925575 176.46391374 120.42059207 C182.08853204 120.42163954 187.71304481 120.42753502 193.33763695 120.44541168 C198.63095737 120.46190793 203.92409312 120.46404025 209.21743011 120.45527267 C211.15678973 120.45450311 213.09615933 120.45883442 215.03549385 120.46873093 C217.69044071 120.4814811 220.3447365 120.47555704 222.99967957 120.46514893 C223.76059802 120.47320533 224.52151647 120.48126173 225.30549306 120.48956227 C230.78502893 120.43958969 235.77339988 119.43770087 240.76171875 117.09765625 C245.35320764 112.39138014 246.11671056 109.02850901 246.04296875 102.640625 C245.62990631 98.90585207 244.25297543 96.85823797 241.76171875 94.09765625 C236.11924367 89.90196965 230.36257312 89.94950337 223.55230713 89.95721436 C222.72950752 89.95424323 221.90670791 89.95127211 221.05897498 89.94821095 C218.30395475 89.93954456 215.54897808 89.93801745 212.79394531 89.93652344 C210.81768705 89.93189382 208.84142968 89.92686896 206.86517334 89.92147827 C201.49726806 89.90836637 196.12937528 89.9019117 190.76145649 89.89746761 C187.40664057 89.89453501 184.05182806 89.89042984 180.69701385 89.88596344 C170.1971616 89.87229185 159.69731714 89.86262347 149.1974566 89.85876155 C137.08317898 89.85428115 124.96901421 89.8367326 112.8547709 89.80776095 C103.48645174 89.78613512 94.11816432 89.77605679 84.74982047 89.77472043 C79.15651596 89.77367308 73.56331757 89.76777994 67.97003937 89.74990082 C62.70707407 89.73340456 57.44429452 89.73127225 52.18131256 89.74003983 C50.25323997 89.74080936 48.32515733 89.73647859 46.39710999 89.72658157 C43.75754212 89.71383034 41.11862901 89.71975597 38.47906494 89.73016357 C37.72271956 89.72210717 36.96637417 89.71405077 36.18710923 89.70575023 C29.57590485 89.76638754 23.00203511 90.80133198 18.26171875 95.66015625 Z " fill="#DF0303" transform="translate(45.23828125,31.90234375)"/>
<path d="M0 0 C1.5652069 1.28838518 3.12774982 2.58001413 4.6875 3.875 C5.52152344 4.514375 6.35554687 5.15375 7.21484375 5.8125 C25.44332043 21.01729571 35.73871084 46.24724931 38.22265625 69.35546875 C40.45247339 95.35125617 32.50633727 116.69184508 19.6875 138.875 C20.35394531 139.53097168 21.02039063 140.18694336 21.70703125 140.86279297 C24.17099529 143.29272674 26.6304342 145.72706041 29.08691406 148.16455078 C30.1521826 149.21974509 31.21923697 150.27313964 32.28808594 151.32470703 C33.82176216 152.83419727 35.34895568 154.34998699 36.875 155.8671875 C37.79667969 156.77839355 38.71835937 157.68959961 39.66796875 158.62841797 C41.6875 160.875 41.6875 160.875 41.6875 162.875 C40.11328125 164.20703125 40.11328125 164.20703125 38 165.6875 C31.90402919 170.12288122 25.12274798 176.00450405 21.6875 182.875 C17.60414456 182.34613167 15.74396982 180.27870962 12.921875 177.40234375 C12.03242188 176.50322266 11.14296875 175.60410156 10.2265625 174.67773438 C9.30617188 173.73220703 8.38578125 172.78667969 7.4375 171.8125 C6.49288327 170.85283027 5.54757805 169.89383771 4.6015625 168.93554688 C2.29000828 166.58861172 -0.0142634 164.23496609 -2.3125 161.875 C-5.81866153 163.23238007 -9.04605999 164.79370282 -12.32348633 166.64208984 C-35.70608249 179.75594404 -63.47609659 183.51939967 -89.44995117 176.35083008 C-102.92385312 172.27770974 -115.40099014 165.7671169 -126.3125 156.875 C-127.15167969 156.19953125 -127.99085938 155.5240625 -128.85546875 154.828125 C-147.72087567 138.79984129 -159.46544323 115.34969858 -162.3125 90.875 C-164.09099018 60.80844895 -156.7608035 34.45968315 -136.8125 11.5625 C-100.99472152 -26.65956998 -41.53765931 -32.99834609 0 0 Z M-38.56640625 48.04562378 C-41.00583499 50.45333713 -43.42761944 52.87750466 -45.84375 55.30859375 C-46.72027222 56.18653091 -47.59679443 57.06446808 -48.49987793 57.9690094 C-51.27312796 60.74781496 -54.04286282 63.53009397 -56.8125 66.3125 C-58.70260805 68.20819865 -60.59351518 70.10309783 -62.484375 71.99804688 C-67.09641004 76.62105189 -71.70557141 81.24690657 -76.3125 85.875 C-83.69849449 79.62808102 -83.69849449 79.62808102 -86.69921875 76.515625 C-87.5180957 75.67837891 -87.5180957 75.67837891 -88.35351562 74.82421875 C-89.46465652 73.67748971 -90.5739917 72.52900861 -91.68164062 71.37890625 C-95.72225692 67.25661281 -98.6843662 64.60531814 -104.6875 64.5 C-110.17035229 64.62624989 -113.18078891 66.89030347 -117.125 70.5625 C-118.9844452 74.18352486 -119.74343755 77.82054533 -119.3125 81.875 C-116.99963502 87.87020448 -113.58658241 92.18658201 -109.04296875 96.640625 C-108.443741 97.24130798 -107.84451324 97.84199097 -107.22712708 98.46087646 C-105.96703069 99.71932405 -104.70203035 100.97287884 -103.43237305 102.22167969 C-101.50330407 104.12174561 -99.5936425 106.03983492 -97.68554688 107.9609375 C-96.45163052 109.18861634 -95.21663957 110.41521626 -93.98046875 111.640625 C-93.41668015 112.20734924 -92.85289154 112.77407349 -92.27201843 113.35797119 C-87.57461315 117.94647832 -83.08580293 121.42769308 -76.4375 122.5 C-65.91199865 121.82419146 -57.46797361 110.45326296 -50.5078125 103.43359375 C-49.29526055 102.22052213 -48.08218763 101.00797106 -46.86862183 99.7959137 C-44.34092657 97.26812923 -41.81843157 94.73530569 -39.29980469 92.19848633 C-36.07711171 88.95302282 -32.84336991 85.71884133 -29.60591316 82.48811245 C-27.10563619 79.9911802 -24.6103795 77.48928054 -22.1166954 74.98576546 C-20.92594076 73.79117364 -19.7338492 72.59791286 -18.54037857 71.40603447 C-16.87495385 69.74098179 -15.21619258 68.06956236 -13.55908203 66.39624023 C-13.06971664 65.90935226 -12.58035126 65.42246429 -12.07615662 64.92082214 C-8.14497513 60.92827932 -4.88532014 57.22709933 -4.875 51.4375 C-5.08531344 45.68255948 -7.63249788 42.55500212 -11.625 38.5625 C-22.67954132 31.62127638 -30.93973923 40.70076425 -38.56640625 48.04562378 Z " fill="#DF0303" transform="translate(367.3125,226.125)"/>
<path d="M0 0 C0.93783829 -0.00571014 1.87567657 -0.01142029 2.8419342 -0.01730347 C3.86900482 -0.01842133 4.89607544 -0.01953918 5.95426941 -0.02069092 C7.57906975 -0.02813828 7.57906975 -0.02813828 9.23669434 -0.03573608 C12.82769908 -0.05036643 16.41865965 -0.05716118 20.00968933 -0.06268311 C22.50209556 -0.06843383 24.99450177 -0.07419157 27.48690796 -0.07995605 C32.04792072 -0.08912439 36.60892079 -0.0954237 41.16994172 -0.09845281 C47.2094484 -0.10248618 53.24879961 -0.11476168 59.28825378 -0.14080811 C65.76913655 -0.16832863 72.24988584 -0.18120014 78.73082542 -0.18312836 C81.20157163 -0.18615649 83.67231695 -0.19419036 86.14303017 -0.20731354 C89.59979846 -0.22436344 93.0560699 -0.22249607 96.51286316 -0.21600342 C98.04436005 -0.22982559 98.04436005 -0.22982559 99.60679626 -0.243927 C106.06578988 -0.20591452 110.636652 0.49605527 115.50968933 5.11309814 C116.08074402 5.80274658 116.65179871 6.49239502 117.24015808 7.20294189 C117.82410339 7.89516846 118.40804871 8.58739502 119.00968933 9.30059814 C123.23280884 14.78018296 121.81542881 23.27110339 121.88761902 29.94171143 C121.91416311 31.81371737 121.95501916 33.68557884 122.01066589 35.5569458 C122.52643903 53.11498191 122.52643903 53.11498191 118.02140808 58.35137939 C114.52834056 61.42364992 112.25453669 62.26531193 107.62716675 62.28088379 C106.61353058 62.28659393 105.59989441 62.29230408 104.55554199 62.29818726 C103.43914841 62.29930511 102.32275482 62.30042297 101.17253113 62.30157471 C100.0000885 62.30653961 98.82764587 62.31150452 97.61967468 62.31661987 C94.39847987 62.32874104 91.17732137 62.3361901 87.95610785 62.34063053 C85.9435935 62.34356076 83.93108486 62.3476655 81.91857338 62.3521347 C75.62186321 62.36581207 69.32516608 62.37547716 63.02844208 62.3793366 C55.76003511 62.38381602 48.49181633 62.40135737 41.22346658 62.43033719 C35.60555628 62.4519587 29.98769891 62.46204115 24.36974746 62.46337771 C21.01438626 62.46442555 17.6592019 62.47032841 14.30388451 62.48819733 C10.55943353 62.5052168 6.81544239 62.50338725 3.07096863 62.49688721 C1.40548729 62.51070938 1.40548729 62.51070938 -0.29364014 62.52481079 C-7.10137276 62.4877171 -10.65984509 61.72932797 -15.82234192 57.14044189 C-19.28365529 53.18465519 -18.74893599 48.72074292 -18.77546692 43.74591064 C-18.78116699 42.92093582 -18.78686707 42.095961 -18.79273987 41.24598694 C-18.80218315 39.50012492 -18.80872118 37.75424512 -18.81257629 36.00836182 C-18.82226777 33.34829272 -18.85329104 30.68900112 -18.88484192 28.02911377 C-18.89137381 26.33055064 -18.89662355 24.63198199 -18.90046692 22.93341064 C-18.91281372 22.14258591 -18.92516052 21.35176117 -18.93788147 20.53697205 C-18.9144443 14.67473082 -17.74815903 10.47856795 -13.63484192 6.05841064 C-12.95421692 5.48735596 -12.27359192 4.91630127 -11.57234192 4.32794189 C-10.89171692 3.74399658 -10.21109192 3.16005127 -9.50984192 2.55841064 C-6.38806245 0.27372123 -3.74735359 0.01367126 0 0 Z " fill="#DE0303" transform="translate(124.57234191894531,-0.14044189453125)"/>
<path d="M0 0 C10.15903326 8.042568 19.21878316 17.37637654 28.37841797 26.51318359 C30.75171825 28.87671118 33.13549253 31.22934212 35.51953125 33.58203125 C37.05013682 35.10611065 38.58010682 36.63082867 40.109375 38.15625 C40.81261902 38.84714722 41.51586304 39.53804443 42.24041748 40.24987793 C50.29630602 48.34195906 56.24189156 56.35821381 56.375 68.125 C56.20750953 76.96477454 54.33101655 83.23804526 48.25 89.75 C40.58717242 96.83990589 32.91024728 98.78044201 22.62890625 98.6328125 C5.53861878 97.41864784 -7.57402413 79.01339713 -18.95654297 67.65869141 C-21.38454354 65.240495 -23.82302676 62.83318916 -26.26171875 60.42578125 C-27.82878144 58.86524224 -29.39521025 57.30406638 -30.9609375 55.7421875 C-31.67978119 55.03569061 -32.39862488 54.32919373 -33.13925171 53.60128784 C-41.25742779 45.44736525 -46.37365017 38.14173787 -47.3125 26.5 C-47.06694694 18.18393624 -44.05729445 10.48544678 -38.2109375 4.5625 C-27.05616594 -5.77396785 -13.44568746 -7.28308071 0 0 Z " fill="#DF0303" transform="translate(456,413.625)"/>
</svg>
