<?xml version="1.0" standalone="no"?>
<!DOCTYPE svg PUBLIC "-//W3C//DTD SVG 20010904//EN"
 "http://www.w3.org/TR/2001/REC-SVG-20010904/DTD/svg10.dtd">
<svg version="1.0" xmlns="http://www.w3.org/2000/svg"
 width="512.000000pt" height="512.000000pt" viewBox="0 0 512.000000 512.000000"
 preserveAspectRatio="xMidYMid meet">

<g transform="translate(0.000000,512.000000) scale(0.100000,-0.100000)"
fill="#000000" stroke="none">
<path d="M285 5022 c-91 -32 -158 -99 -190 -192 -13 -40 -15 -302 -13 -2285
l3 -2240 25 -50 c33 -68 99 -129 166 -154 54 -21 65 -21 1481 -21 l1427 0 -74
45 c-212 132 -402 338 -511 555 -97 195 -137 354 -145 575 -9 239 30 424 135
640 192 393 550 665 987 751 133 26 398 24 524 -4 52 -11 114 -28 138 -36 l42
-15 -2 1112 -3 1112 -27 52 c-35 66 -82 113 -144 144 l-49 24 -1860 2 c-1744
2 -1863 1 -1910 -15z m3356 -473 c102 -48 161 -131 180 -253 6 -38 9 -203 7
-393 l-3 -328 -26 -55 c-36 -78 -80 -124 -151 -160 l-61 -30 -1407 0 c-1040 0
-1416 3 -1441 12 -54 18 -116 65 -147 111 -56 81 -57 90 -57 502 0 374 0 381
23 429 46 100 110 155 211 182 36 10 355 12 1431 11 l1385 -2 56 -26z m-2290
-1522 c35 -27 39 -53 39 -261 l0 -206 215 0 c216 0 216 0 240 -25 32 -31 32
-66 1 -102 l-24 -28 -216 -3 -216 -3 0 -207 c0 -225 -4 -243 -57 -263 -28 -11
-76 10 -93 40 -6 12 -10 103 -10 225 l0 206 -199 0 c-112 0 -211 5 -228 10
-54 19 -69 85 -28 125 24 25 24 25 240 25 l215 0 0 211 0 211 29 29 c31 30 65
37 92 16z m1527 -487 c49 -46 35 -112 -27 -131 -22 -6 -126 -9 -273 -7 -234 3
-237 3 -262 27 -34 32 -34 74 -1 106 l24 25 259 0 c246 0 259 -1 280 -20z
m-1741 -1212 l173 -172 175 173 c168 168 175 173 207 167 41 -8 68 -39 68 -79
0 -26 -24 -55 -171 -203 l-171 -171 27 -21 c14 -11 93 -85 176 -164 122 -118
149 -149 149 -172 0 -34 -49 -86 -81 -86 -16 0 -74 51 -196 172 l-173 172
-173 -172 c-160 -159 -176 -172 -209 -172 -28 0 -42 7 -57 26 -41 52 -34 65
149 248 l169 171 -169 171 c-144 144 -170 175 -170 200 1 44 40 83 84 84 12 0
86 -66 193 -172z"/>
<path d="M785 4406 c-37 -16 -70 -52 -84 -89 -7 -18 -11 -151 -11 -366 0 -329
0 -338 23 -381 13 -26 36 -53 57 -65 35 -20 48 -20 1410 -20 1362 0 1375 0
1410 20 21 12 44 39 58 65 22 45 23 48 20 397 -3 339 -4 353 -24 380 -11 15
-36 38 -54 51 l-33 22 -1371 0 c-1120 -1 -1376 -3 -1401 -14z"/>
<path d="M3620 2495 c-524 -99 -915 -495 -997 -1008 -19 -122 -13 -333 12
-447 109 -492 493 -857 992 -945 534 -93 1096 211 1311 710 76 176 97 283 97
490 0 175 -14 265 -64 410 -133 384 -462 676 -872 775 -119 29 -364 37 -479
15z m233 -286 c33 -18 37 -28 37 -107 0 -60 3 -74 18 -78 67 -22 164 -79 201
-120 58 -62 102 -159 108 -239 5 -58 4 -65 -20 -89 -59 -58 -137 -10 -137 84
0 47 -49 129 -99 165 -115 84 -271 55 -352 -64 -83 -124 -21 -305 124 -366 19
-8 72 -19 117 -24 200 -25 338 -152 371 -339 30 -169 -66 -350 -224 -421 -34
-16 -70 -31 -79 -35 -15 -4 -18 -18 -18 -76 0 -82 -18 -110 -73 -110 -59 0
-71 18 -77 111 l-5 82 -42 12 c-128 38 -232 149 -269 290 -17 62 -17 97 -3
129 25 55 118 51 138 -6 6 -17 11 -43 11 -57 0 -41 44 -124 81 -155 75 -64
154 -80 241 -50 134 45 198 210 133 341 -44 87 -109 125 -242 141 -194 23
-331 144 -369 322 -42 204 81 400 299 473 14 5 17 19 17 77 0 62 3 74 25 95
26 27 54 31 88 14z"/>
</g>
</svg>
