<?xml version="1.0" standalone="no"?>
<!DOCTYPE svg PUBLIC "-//W3C//DTD SVG 20010904//EN"
 "http://www.w3.org/TR/2001/REC-SVG-20010904/DTD/svg10.dtd">
<svg version="1.0" xmlns="http://www.w3.org/2000/svg"
 width="512.000000pt" height="512.000000pt" viewBox="0 0 512.000000 512.000000"
 preserveAspectRatio="xMidYMid meet">

<g transform="translate(0.000000,512.000000) scale(0.100000,-0.100000)"
fill="#DF0303" stroke="none">
<path d="M2420 5114 c-234 -22 -547 -102 -701 -179 -48 -25 -59 -40 -59 -81 0
-29 41 -74 68 -74 10 0 71 20 134 44 261 99 436 130 728 130 295 0 479 -34
738 -139 262 -105 482 -254 693 -467 104 -105 132 -128 156 -128 57 0 94 51
74 103 -15 38 -194 220 -306 310 -311 251 -643 397 -1045 462 -94 15 -392 27
-480 19z"/>
<path d="M2391 4789 c-47 -5 -137 -21 -200 -35 -512 -115 -949 -438 -1205
-892 -67 -119 -140 -295 -140 -341 0 -61 75 -94 122 -53 12 9 35 53 52 97 83
213 196 387 360 558 340 353 786 534 1274 514 502 -21 963 -263 1277 -672 93
-121 203 -325 244 -455 26 -83 95 -219 118 -235 32 -22 74 -18 102 10 33 32
32 53 -11 136 -19 39 -49 110 -66 158 -37 106 -130 290 -199 393 -78 118 -205
264 -310 356 -391 346 -908 514 -1418 461z"/>
<path d="M1384 4752 c-144 -94 -320 -251 -440 -395 -59 -70 -74 -94 -74 -121
0 -42 35 -76 78 -76 36 0 36 0 142 124 89 104 220 222 348 313 101 72 117 95
101 143 -22 62 -72 65 -155 12z"/>
<path d="M2411 4470 c-447 -57 -834 -296 -1086 -671 -158 -234 -241 -493 -252
-784 -7 -179 10 -316 62 -495 35 -122 116 -337 141 -378 32 -49 107 -47 135 4
16 30 12 43 -60 230 -28 73 -65 185 -83 250 -31 115 -32 126 -32 319 -1 156 3
218 17 282 59 273 181 499 376 693 117 117 217 189 350 256 179 89 354 133
556 141 329 13 650 -93 901 -297 88 -71 109 -83 137 -74 39 12 57 35 57 75 0
31 -7 44 -42 77 -175 165 -446 299 -716 353 -114 22 -353 32 -461 19z"/>
<path d="M2535 4135 c-16 -15 -25 -36 -25 -55 0 -19 9 -40 25 -55 20 -21 34
-25 83 -25 252 0 536 -129 725 -329 111 -118 178 -230 236 -396 71 -201 210
-436 369 -625 44 -52 140 -155 214 -227 112 -110 140 -133 164 -133 16 0 37 6
46 14 23 17 39 61 31 83 -4 10 -74 87 -156 172 -82 85 -176 188 -210 230 -134
168 -246 364 -311 544 -71 195 -160 339 -292 471 -182 183 -420 302 -677 340
-152 23 -193 21 -222 -9z"/>
<path d="M2180 4087 c-217 -77 -435 -243 -572 -437 -62 -88 -142 -255 -172
-362 -90 -316 -50 -611 142 -1044 130 -294 390 -728 451 -753 31 -13 68 -3 91
23 28 35 15 71 -77 213 -217 330 -386 685 -466 978 -19 69 -21 105 -21 260 0
166 2 187 27 270 98 325 329 580 632 696 92 35 102 43 111 85 4 24 1 37 -18
57 -33 37 -55 39 -128 14z"/>
<path d="M3715 3835 c-35 -34 -31 -70 16 -140 53 -79 111 -199 149 -310 41
-116 127 -280 204 -388 89 -125 202 -253 235 -267 59 -24 123 37 101 95 -6 15
-39 59 -75 98 -140 153 -242 321 -319 524 -29 76 -66 163 -81 193 -37 73 -113
192 -133 208 -26 20 -71 14 -97 -13z"/>
<path d="M2427 3825 c-179 -34 -329 -115 -462 -250 -182 -183 -266 -405 -252
-663 7 -128 35 -236 112 -428 210 -522 559 -1019 1048 -1490 102 -99 122 -114
151 -114 49 0 80 29 80 74 0 33 -13 48 -166 201 -398 396 -649 728 -845 1119
-157 312 -223 515 -223 687 0 337 226 621 558 700 70 17 107 20 192 16 190 -9
336 -73 471 -207 90 -90 144 -178 194 -320 46 -129 128 -295 150 -304 54 -20
115 14 115 66 0 14 -22 72 -49 129 -27 57 -61 140 -76 184 -102 295 -309 495
-602 580 -113 33 -282 41 -396 20z"/>
<path d="M2470 3504 c-257 -55 -440 -284 -440 -549 0 -66 32 -208 52 -232 22
-27 57 -34 93 -19 46 19 53 51 30 138 -52 201 33 392 215 481 60 30 72 32 165
32 97 0 104 -2 177 -38 83 -41 147 -102 179 -172 10 -22 39 -94 64 -160 83
-215 223 -455 382 -660 156 -201 444 -489 717 -719 136 -115 182 -146 213
-146 35 0 73 42 73 81 0 35 -1 36 -180 183 -219 180 -573 534 -701 701 -155
202 -276 410 -354 610 -81 210 -94 234 -175 316 -139 141 -318 195 -510 153z"/>
<path d="M808 3285 c-31 -18 -35 -27 -48 -125 -34 -262 9 -580 118 -885 208
-582 599 -1211 1038 -1673 89 -93 120 -104 164 -57 39 41 30 77 -37 151 -239
266 -394 464 -538 684 -272 417 -488 894 -567 1251 -21 94 -23 130 -23 366 0
220 -2 265 -15 277 -23 23 -62 27 -92 11z"/>
<path d="M2503 3184 c-54 -20 -117 -83 -139 -140 -35 -93 4 -230 151 -529 177
-357 358 -605 700 -954 255 -261 524 -497 764 -671 56 -41 83 -54 109 -54 54
0 87 54 66 109 -4 9 -60 57 -126 107 -426 321 -837 725 -1091 1070 -159 216
-327 522 -396 721 -39 111 -40 149 -5 176 53 42 104 23 130 -46 143 -392 338
-710 636 -1041 110 -122 135 -140 183 -128 30 8 59 59 51 92 -4 13 -44 63 -89
112 -277 297 -507 661 -617 978 -36 103 -73 155 -133 185 -53 28 -140 33 -194
13z"/>
<path d="M3590 2700 c-37 -37 -27 -79 40 -166 127 -165 380 -424 601 -616 77
-66 103 -77 144 -62 23 9 48 62 41 89 -3 13 -68 79 -143 148 -178 161 -399
388 -488 501 -38 49 -78 98 -87 108 -24 25 -82 24 -108 -2z"/>
<path d="M2207 2533 c-42 -47 -28 -89 108 -329 183 -321 395 -592 719 -917
324 -325 787 -707 857 -707 35 0 79 39 79 70 0 38 -19 59 -140 150 -254 191
-487 398 -725 641 -345 352 -552 631 -720 969 -26 52 -56 105 -68 118 -26 28
-86 30 -110 5z"/>
<path d="M1420 1970 c-39 -39 -36 -63 20 -167 152 -281 337 -550 559 -813 261
-308 900 -914 988 -936 53 -14 104 41 90 97 -4 14 -48 58 -106 107 -612 506
-1092 1065 -1395 1624 -26 48 -55 92 -66 98 -30 16 -68 12 -90 -10z"/>
<path d="M795 1838 c-61 -33 -59 -61 15 -207 225 -450 509 -854 890 -1266 202
-219 242 -255 280 -255 37 0 80 39 80 72 0 34 -19 58 -174 218 -382 394 -669
790 -916 1263 -95 183 -119 206 -175 175z"/>
<path d="M3635 1705 c-27 -26 -31 -58 -12 -91 36 -64 533 -475 592 -490 47
-12 103 44 91 92 -7 28 1 20 -202 182 -83 67 -198 163 -255 215 -143 129 -168
139 -214 92z"/>
<path d="M2195 1365 c-45 -44 -35 -70 72 -196 118 -140 485 -507 648 -651 66
-57 185 -157 265 -221 148 -120 173 -132 220 -107 22 12 40 61 33 89 -3 12
-46 54 -96 94 -357 283 -722 630 -966 918 -35 41 -70 80 -79 87 -26 20 -71 14
-97 -13z"/>
<path d="M911 973 c-41 -35 -37 -71 15 -148 117 -171 353 -469 381 -479 35
-14 72 -6 92 20 37 47 29 70 -60 174 -25 30 -103 132 -173 225 -69 94 -137
182 -150 198 -28 32 -73 36 -105 10z"/>
<path d="M3240 807 c-33 -17 -55 -57 -47 -89 12 -47 407 -358 455 -358 57 0
98 62 73 109 -6 10 -59 56 -118 102 -60 45 -145 113 -191 151 -73 61 -126 98
-142 98 -3 0 -16 -6 -30 -13z"/>
<path d="M2216 418 c-14 -13 -28 -36 -32 -52 -6 -27 2 -37 112 -145 160 -156
239 -221 270 -221 37 0 74 42 74 83 0 31 -14 47 -161 183 -206 190 -214 195
-263 152z"/>
</g>
</svg>
