<?xml version="1.0" encoding="UTF-8"?>
<svg version="1.1" xmlns="http://www.w3.org/2000/svg" width="512" height="512">
<path d="M0 0 C0.86115227 -0.00256327 1.72230453 -0.00512655 2.60955232 -0.0077675 C5.47007619 -0.01267471 8.33006197 0.00373656 11.1905365 0.02018738 C13.250951 0.02103431 15.31136641 0.02055721 17.3717804 0.01885986 C22.9475958 0.01800108 28.52321658 0.03560798 34.09898686 0.05658174 C39.9325888 0.07536802 45.76619548 0.07710052 51.599823 0.08065796 C62.63872319 0.08997267 73.67753397 0.11457875 84.71639484 0.14470643 C97.2870894 0.17826824 109.85778828 0.19474094 122.42851651 0.20979273 C148.28014756 0.24112877 174.13169932 0.29387817 199.98326111 0.36076355 C198.74743364 2.88961039 197.4429696 5.26514148 195.99497986 7.68888855 C195.21835489 8.99506104 194.4437225 10.3024197 193.67076111 11.61076355 C193.25616638 12.3066156 192.84157166 13.00246765 192.41441345 13.71940613 C189.90947233 18.11711193 188.48820377 21.99422052 187.53257751 26.94865417 C186.78471793 30.64922518 185.9845964 33.07423809 183.98326111 36.36076355 C178.91402272 39.33094921 172.90165229 40.05408177 167.17955017 40.97795105 C151.92206163 43.63732655 135.37664549 56.3616528 126.41294861 68.7865448 C115.69462233 84.53503874 110.03855783 101.8362327 109.77232361 120.9037323 C109.74423928 122.32236332 109.71557472 123.74098295 109.68638611 125.15959167 C109.64542241 127.34651661 109.60844357 129.53323271 109.58189392 131.72038269 C109.26310566 156.01149849 109.26310566 156.01149849 102.48326111 165.11076355 C96.4837766 173.91338987 94.8865483 181.68694238 95.98326111 192.36076355 C97.74060242 201.13575449 102.25365933 207.55216482 108.98326111 213.36076355 C117.74185452 218.93907707 125.68201025 220.20629975 135.98326111 219.36076355 C141.50590915 217.97415895 146.04425922 215.36153084 150.79576111 212.29826355 C160.63694225 206.25378771 171.8574191 205.96137508 183.09739685 205.87968445 C210.17511353 205.63981212 235.0678994 201.01648233 255.13951111 181.23576355 C264.36238903 171.30343348 271.9909411 158.88434153 275.18638611 145.6381073 C275.3847406 144.82672302 275.58309509 144.01533875 275.78746033 143.17936707 C276.16064931 141.58174151 276.50228229 139.97632938 276.80796814 138.36442566 C278.04806287 132.95455684 278.04806287 132.95455684 280.72740173 131.25334167 C282.79466429 130.47542392 284.84169418 129.89679402 286.98326111 129.36076355 C306.41347368 121.93455665 319.89476236 111.29625395 332.30357361 94.8646698 C334.90714455 91.41955018 337.66758501 88.1333455 340.48326111 84.86076355 C344.24808193 80.46813901 347.87542163 75.99471831 351.42076111 71.42326355 C355.70662233 65.89955564 360.17648568 60.56903128 364.7596283 55.29020691 C368.25536441 51.25208874 371.57796695 47.11723992 374.77622986 42.83732605 C375.37371033 42.10642761 375.37371033 42.10642761 375.98326111 41.36076355 C376.31326111 41.36076355 376.64326111 41.36076355 376.98326111 41.36076355 C376.98326111 106.70076355 376.98326111 172.04076355 376.98326111 239.36076355 C238.71326111 239.36076355 100.44326111 239.36076355 -42.01673889 239.36076355 C-42.01673889 24.0496193 -42.01673889 24.0496193 -30.02845764 11.1771698 C-21.51728266 3.49232249 -11.33326432 -0.12584109 0 0 Z " fill="#DE0303" transform="translate(56.01673889160156,125.63923645019531)"/>
<path d="M0 0 C138.27 0 276.54 0 419 0 C419 30.53934741 419 30.53934741 406.96484375 43.12890625 C399.70052413 50.08574144 391.05719667 54.13076473 380.925354 54.12025452 C379.90174271 54.12162918 378.87813141 54.12300385 377.82350159 54.12442017 C376.70644333 54.12082489 375.58938507 54.11722961 374.43847656 54.11352539 C372.66732735 54.11374443 372.66732735 54.11374443 370.86039734 54.1139679 C367.62724892 54.11339088 364.39414385 54.10837784 361.16100407 54.10139394 C357.78041332 54.09513987 354.39982171 54.09455497 351.01922607 54.09336853 C344.61968579 54.09026128 338.2201626 54.08205604 331.82062984 54.07201904 C324.53410009 54.06083911 317.24756953 54.05534271 309.96103334 54.05032361 C294.97401114 54.03987293 279.98701114 54.02153497 265 54 C265 65.22 265 76.44 265 88 C274.88754367 87.80288002 274.88754367 87.80288002 284.77368164 87.54956055 C296.18309317 87.43477773 296.18309317 87.43477773 300.37109375 90.28125 C304.18990126 94.23056653 305.85166088 97.56240209 306.08984375 103.08203125 C305.72407877 107.98703343 304.11834561 111.27530941 301 115 C296.93587043 118.04004415 293.93196751 118.37796297 288.90931702 118.38768005 C288.20690728 118.39306559 287.50449755 118.39845113 286.78080267 118.40399987 C284.43319735 118.41827801 282.08615602 118.41117635 279.73852539 118.40405273 C278.05295865 118.4097564 276.36739577 118.41672064 274.68183899 118.42485046 C270.10744226 118.44279752 265.53323719 118.44161058 260.95881581 118.43590808 C257.1391669 118.43281845 253.31955491 118.43890617 249.49991125 118.44494683 C240.48859776 118.45899554 231.47737906 118.45742789 222.46606445 118.44604492 C213.17117744 118.43456316 203.87657894 118.44863954 194.58172995 118.4754414 C186.59941515 118.4975963 178.61719094 118.50423625 170.63484758 118.49836498 C165.8682457 118.49499372 161.10182877 118.49742171 156.33525276 118.51461601 C151.85276286 118.53007974 147.37070044 118.52613606 142.88822746 118.50731087 C141.24432329 118.50362339 139.60038749 118.50673812 137.95651245 118.51719666 C135.70973796 118.53039822 133.46438048 118.51886843 131.21766663 118.50120544 C129.96130433 118.50099616 128.70494204 118.50078688 127.41050816 118.50057125 C122.79592273 117.82327371 119.63487592 115.83595692 116.5390625 112.359375 C114.01218925 107.9103503 113.01783348 104.09123053 114 99 C115.98036953 93.52616961 118.93174485 90.90288886 124 88 C127.43505859 87.54589844 127.43505859 87.54589844 131.1484375 87.609375 C132.95320557 87.62436035 132.95320557 87.62436035 134.79443359 87.63964844 C136.30602051 87.67606445 137.81760742 87.71248047 139.375 87.75 C146.614375 87.87375 146.614375 87.87375 154 88 C154 76.78 154 65.56 154 54 C150.41721191 54.01571045 146.83442383 54.0314209 143.14306641 54.04760742 C131.28872142 54.09737763 119.43436907 54.13063178 107.57995033 54.15543652 C100.39455444 54.17087279 93.20925789 54.1918999 86.02392578 54.22631836 C79.75756299 54.25632043 73.49127219 54.27559852 67.22483957 54.28226548 C63.91006117 54.28615957 60.59553534 54.29684238 57.28081131 54.31719017 C53.57071108 54.33905363 49.86103348 54.34196312 46.15087891 54.34057617 C45.06474304 54.351362 43.97860718 54.36214783 42.85955811 54.3732605 C30.5540897 54.32367536 19.85632552 50.72720451 10.92578125 41.96484375 C0.14177094 29.0754952 0 16.26316902 0 0 Z " fill="#DF0404" transform="translate(14,394)"/>
<path d="M0 0 C6.67838546 4.27273048 12.24632119 10.5149789 14.75 18.12890625 C16.60500722 27.9098534 16.01679575 37.02734296 11.015625 45.7265625 C8.66542259 49.14185665 6.09608138 52.18458818 3.24609375 55.19140625 C1.11339292 57.46521205 -0.82429212 59.82476194 -2.7578125 62.26953125 C-7.05126102 67.6950414 -11.43133089 73.04616811 -15.8203125 78.39453125 C-21.00186564 84.71583453 -26.16807969 91.04932181 -31.3203125 97.39453125 C-37.16659019 104.59448857 -43.03505917 111.77595722 -48.9140625 118.94921875 C-53.39531599 124.42089421 -57.86202496 129.90414339 -62.3203125 135.39453125 C-77.74440871 154.38387303 -77.74440871 154.38387303 -83.8203125 161.39453125 C-87.99647049 159.75709191 -90.7851278 156.69671333 -93.87402344 153.56787109 C-94.46957535 152.97261124 -95.06512726 152.37735138 -95.6787262 151.76405334 C-97.64215893 149.79922948 -99.59841623 147.82742086 -101.5546875 145.85546875 C-102.9161689 144.49025646 -104.27809311 143.12548564 -105.64044189 141.76113892 C-109.22215074 138.17179966 -112.7978124 134.57649445 -116.37225342 130.97991943 C-120.02188371 127.30981806 -123.67719342 123.64538296 -127.33203125 119.98046875 C-134.50036579 112.79069473 -141.6623255 105.59460609 -148.8203125 98.39453125 C-147.33471822 95.25506661 -146.01192715 93.44553199 -143.29296875 91.2578125 C-142.58865723 90.68506592 -141.8843457 90.11231934 -141.15869141 89.5222168 C-140.03213135 88.62369995 -140.03213135 88.62369995 -138.8828125 87.70703125 C-138.11372559 87.08417236 -137.34463867 86.46131348 -136.55224609 85.81958008 C-135.01350369 84.573847 -133.47252547 83.33086998 -131.92919922 82.09082031 C-129.25340132 79.93853462 -126.59876753 77.76179256 -123.9453125 75.58203125 C-122.23710252 74.18604696 -120.52877147 72.79021081 -118.8203125 71.39453125 C-116.98686214 69.89467429 -115.15353079 68.39467185 -113.3203125 66.89453125 C-91.3203125 48.89453125 -91.3203125 48.89453125 -88.55078125 46.62890625 C-86.78208455 45.18156074 -85.01382707 43.73367824 -83.24609375 42.28515625 C-77.08851562 37.2412806 -70.91401359 32.21856669 -64.73486328 27.20117188 C-60.82057413 24.02203486 -56.91038552 20.83805309 -53.0078125 17.64453125 C-52.14671875 16.94199219 -51.285625 16.23945313 -50.3984375 15.515625 C-48.60659496 14.04142728 -46.82609499 12.5533783 -45.0546875 11.0546875 C-31.98019113 0.08014515 -16.94879507 -8.07493098 0 0 Z " fill="#DF0303" transform="translate(481.8203125,2.60546875)"/>
<path d="M0 0 C12.62704138 10.81094045 20.05128061 25.03289041 21.3515625 41.6171875 C21.82918165 57.42015159 16.50734302 71.91823496 6.31640625 83.91015625 C-5.41443405 96.35052318 -20.62848715 100.37111148 -37.30126953 100.88256836 C-39.83774749 100.9305486 -42.37429384 100.97501465 -44.91088867 101.01635742 C-62.86394091 101.32063713 -81.10535098 101.98412953 -96.03515625 113.4375 C-98.48158148 115.2228699 -99.90855742 115.23311857 -102.87109375 114.77734375 C-104.68359375 113.58984375 -104.68359375 113.58984375 -105.87109375 111.77734375 C-106.40627364 107.34514975 -105.1763006 105.27388186 -102.62109375 101.71484375 C-93.82359923 88.47417018 -92.63740459 73.46570145 -92.37109375 57.96484375 C-92.01026959 37.15377942 -90.30709503 18.7318161 -75.49609375 3.02734375 C-54.69626996 -16.53275545 -22.31219859 -17.27298095 0 0 Z " fill="#DF0303" transform="translate(285.87109375,202.22265625)"/>
<path d="M0 0 C2.78382043 1.27170385 4.82934578 2.58060283 6.9866333 4.74612427 C7.54746613 5.30420776 8.10829895 5.86229126 8.68612671 6.43728638 C9.28889435 7.04724457 9.89166199 7.65720276 10.51269531 8.28564453 C11.15701508 8.92967224 11.80133484 9.57369995 12.46517944 10.23724365 C14.59093698 12.36439307 16.70952508 14.49853612 18.828125 16.6328125 C20.30170781 18.11012593 21.77573318 19.58699804 23.25018311 21.06344604 C27.12780821 24.94870369 30.99938941 28.83993029 34.86975098 32.73242188 C38.82099939 36.70413678 42.77792261 40.670189 46.734375 44.63671875 C54.49515421 52.4189412 62.24956148 60.20747999 70 68 C68.16137763 71.85861252 65.76694519 75.09654207 63.125 78.4375 C62.6417627 79.04859619 62.15852539 79.65969238 61.66064453 80.28930664 C51.78797278 92.61825345 41.63321779 105.24206415 26 110 C25.34 110 24.68 110 24 110 C23.72027344 109.06800781 23.44054687 108.13601562 23.15234375 107.17578125 C19.0717491 94.02411151 13.46882113 81.04149529 3.296875 71.3828125 C2 70 2 70 2 68 C1.40058594 67.72414063 0.80117188 67.44828125 0.18359375 67.1640625 C-2 66 -2 66 -4.9375 63.375 C-15.47204015 54.26284502 -26.86475593 49.89192417 -40 46 C-34.77935042 29.40240238 -24.81262802 19.97302654 -11.33203125 9.59765625 C-7.40579775 6.56541644 -3.66867164 3.33826333 0 0 Z " fill="#DF0303" transform="translate(309,118)"/>
</svg>
