<?xml version="1.0" standalone="no"?>
<!DOCTYPE svg PUBLIC "-//W3C//DTD SVG 20010904//EN"
 "http://www.w3.org/TR/2001/REC-SVG-20010904/DTD/svg10.dtd">
<svg version="1.0" xmlns="http://www.w3.org/2000/svg"
 width="512.000000pt" height="512.000000pt" viewBox="0 0 512.000000 512.000000"
 preserveAspectRatio="xMidYMid meet">

<g transform="translate(0.000000,512.000000) scale(0.100000,-0.100000)"
fill="#000000" stroke="none">
<path d="M240 5009 c-54 -24 -83 -50 -119 -104 l-26 -40 -3 -703 c-2 -484 1
-716 8 -743 14 -52 82 -126 140 -152 34 -15 73 -22 157 -25 l112 -4 3 -180 3
-180 33 -29 c61 -55 67 -52 414 181 l313 211 189 -3 189 -3 -69 -46 c-219
-147 -423 -383 -549 -637 -234 -471 -239 -1016 -14 -1492 57 -120 173 -298
250 -383 l52 -59 -135 -136 c-75 -75 -141 -147 -147 -159 -6 -12 -11 -44 -11
-71 0 -115 117 -193 227 -152 15 6 93 76 173 155 l145 144 70 -46 c154 -100
375 -189 585 -235 92 -19 133 -22 330 -22 197 0 238 3 330 22 210 46 431 135
585 235 l70 46 150 -149 c161 -159 179 -170 263 -156 92 14 152 115 127 213
-4 17 -61 82 -147 170 l-141 142 52 58 c77 85 193 263 250 383 225 476 220
1021 -14 1492 -126 254 -330 490 -549 637 l-69 46 189 3 189 2 310 -207 c170
-114 322 -209 338 -211 41 -6 84 16 101 53 13 26 16 69 16 198 l0 164 113 5
c128 6 181 23 236 79 74 75 71 33 71 809 0 460 -4 708 -11 733 -14 52 -73 115
-134 143 l-50 24 -865 -1 c-678 0 -873 -3 -901 -13 -56 -20 -103 -61 -135
-118 l-29 -53 -3 -691 -3 -690 -77 14 c-104 19 -420 19 -524 0 l-77 -14 -3
690 -3 691 -22 41 c-29 55 -78 103 -128 125 -38 18 -89 19 -910 19 -854 0
-871 -1 -915 -21z m1208 -338 c50 -25 86 -90 85 -151 -1 -29 -21 -92 -57 -182
-31 -76 -56 -142 -56 -147 0 -5 60 -11 133 -13 119 -3 135 -5 165 -26 62 -45
72 -81 72 -267 0 -184 -7 -214 -59 -258 -54 -45 -92 -50 -386 -45 -289 6 -371
16 -450 61 l-40 23 -3 256 -2 256 37 7 c58 10 124 43 161 78 39 37 63 82 122
230 46 117 67 149 114 178 41 25 116 25 164 0z m2390 -95 c53 -27 122 -88 122
-108 0 -6 18 10 40 35 116 131 307 136 434 12 64 -63 81 -113 81 -236 0 -104
0 -106 -43 -193 -72 -145 -227 -283 -428 -382 l-75 -38 -77 38 c-197 97 -360
242 -425 376 -90 184 -61 370 70 464 97 69 205 80 301 32z m-978 -1539 c52
-14 107 -30 122 -36 l27 -10 -80 -177 c-44 -97 -84 -184 -89 -194 -9 -17 -13
-17 -62 -3 -86 24 -289 29 -389 8 -286 -57 -528 -266 -628 -541 -41 -111 -55
-213 -48 -342 7 -129 25 -198 81 -317 119 -251 360 -431 636 -475 367 -58 737
138 896 475 56 119 74 188 81 317 10 179 -29 341 -117 489 -50 85 -171 214
-243 259 -31 19 -56 39 -57 44 0 11 159 368 170 379 19 21 244 -145 340 -250
364 -400 443 -977 199 -1454 -150 -293 -420 -526 -727 -629 -152 -50 -242 -64
-412 -64 -347 0 -635 115 -884 353 -389 374 -503 942 -288 1438 47 109 146
261 232 356 121 132 320 266 485 326 187 68 272 81 490 76 142 -2 186 -7 265
-28z m-214 -830 c4 -3 -32 -93 -80 -199 -47 -106 -86 -206 -86 -221 0 -65 84
-100 133 -54 13 12 57 96 97 187 40 91 79 178 87 194 l15 28 49 -48 c248 -243
107 -669 -240 -725 -173 -27 -359 69 -440 229 -124 245 4 533 270 607 53 14
181 16 195 2z"/>
</g>
</svg>
