<?xml version="1.0" standalone="no"?>
<!DOCTYPE svg PUBLIC "-//W3C//DTD SVG 20010904//EN"
 "http://www.w3.org/TR/2001/REC-SVG-20010904/DTD/svg10.dtd">
<svg version="1.0" xmlns="http://www.w3.org/2000/svg"
 width="512.000000pt" height="512.000000pt" viewBox="0 0 512.000000 512.000000"
 preserveAspectRatio="xMidYMid meet">

<g transform="translate(0.000000,512.000000) scale(0.100000,-0.100000)"
fill="#000000" stroke="none">
<path d="M2785 5109 c-299 -29 -622 -137 -885 -295 -205 -123 -433 -322 -572
-500 -242 -307 -399 -685 -448 -1074 -13 -108 -13 -380 0 -490 34 -282 131
-579 266 -813 18 -30 24 -51 18 -55 -32 -22 -634 -534 -634 -540 0 -4 182
-189 404 -411 316 -316 408 -402 418 -394 7 6 130 151 273 322 143 170 263
310 266 311 4 0 42 -20 85 -45 218 -123 506 -213 782 -245 149 -18 456 -8 602
18 830 150 1490 767 1695 1581 45 182 59 303 59 511 0 290 -41 516 -140 768
-347 891 -1240 1441 -2189 1351z m-820 -1580 c62 -12 178 -68 227 -109 95 -79
55 -224 -65 -237 -46 -6 -55 -2 -150 52 -36 20 -67 29 -115 32 -77 6 -114 -6
-138 -42 -32 -49 -13 -64 172 -139 230 -93 303 -147 357 -264 33 -72 31 -198
-5 -274 -75 -160 -269 -256 -464 -228 -142 19 -258 76 -345 167 -45 47 -49 56
-49 100 0 60 26 104 73 126 62 30 104 19 174 -43 115 -101 298 -109 359 -16
41 63 -8 106 -200 175 -163 59 -208 84 -265 146 -64 70 -86 124 -86 220 0 97
29 169 95 235 99 99 247 134 425 99z m2192 -5 c204 -53 382 -234 438 -444 19
-71 19 -229 0 -300 -57 -215 -233 -391 -448 -447 -129 -34 -307 -14 -427 47
-120 61 -236 187 -289 315 -154 369 83 784 483 845 62 10 172 2 243 -16z
m-1046 1 c65 -34 89 -128 49 -193 -32 -52 -69 -62 -235 -62 l-145 0 0 -100 0
-100 118 0 c142 0 181 -10 221 -56 26 -29 31 -43 31 -84 0 -41 -5 -55 -31 -84
-40 -46 -79 -56 -221 -56 l-118 0 0 -100 0 -100 145 0 c166 0 203 -10 235 -62
40 -65 16 -159 -49 -193 -25 -12 -72 -15 -263 -15 -262 0 -285 5 -320 71 -17
31 -18 69 -18 539 0 470 1 508 18 539 35 66 58 71 320 71 191 0 238 -3 263
-15z"/>
<path d="M3893 3256 c-232 -76 -311 -372 -148 -553 67 -76 132 -106 235 -111
69 -3 96 0 142 18 75 28 150 96 185 168 25 50 28 68 28 152 0 79 -4 103 -23
141 -35 72 -84 122 -154 159 -54 29 -75 34 -143 37 -49 2 -96 -3 -122 -11z"/>
<path d="M223 1090 c-220 -185 -283 -485 -158 -749 27 -57 55 -93 118 -156
131 -131 246 -179 432 -179 126 0 191 16 299 72 66 34 176 132 213 189 l16 25
-424 424 c-233 233 -427 424 -430 424 -4 0 -33 -22 -66 -50z"/>
</g>
</svg>
